<?xml version="1.0" encoding="us-ascii" standalone="no"?><svg xmlns="http://www.w3.org/2000/svg" xmlns:xlink="http://www.w3.org/1999/xlink" contentStyleType="text/css" height="1444px" preserveAspectRatio="none" style="width:1457px;height:1444px;background:#FFFFFF;" version="1.1" viewBox="0 0 1457 1444" width="1457px" zoomAndPan="magnify"><defs/><g><rect fill="#DDDDDD" height="1425.0508" style="stroke:#181818;stroke-width:0.5;" width="351.5" x="172" y="6"/><text fill="#000000" font-family="sans-serif" font-size="13" font-weight="bold" lengthAdjust="spacing" textLength="71" x="312.25" y="18.5684">Adapter.In</text><rect fill="#ADD8E6" height="1425.0508" style="stroke:#181818;stroke-width:0.5;" width="524" x="525.5" y="6"/><text fill="#000000" font-family="sans-serif" font-size="13" font-weight="bold" lengthAdjust="spacing" textLength="52" x="761.5" y="18.5684">Domain</text><rect fill="#DDDDDD" height="1425.0508" style="stroke:#181818;stroke-width:0.5;" width="324.5" x="1060.5" y="6"/><text fill="#000000" font-family="sans-serif" font-size="13" font-weight="bold" lengthAdjust="spacing" textLength="83" x="1181.25" y="18.5684">Adapter.Out</text><rect fill="#FFFFFF" height="1327.7637" style="stroke:#181818;stroke-width:1.0;" width="10" x="23" y="100.2871"/><rect fill="#FFFFFF" height="1297.4531" style="stroke:#181818;stroke-width:1.0;" width="10" x="108.5" y="121.5977"/><rect fill="#FFFFFF" height="14" style="stroke:#181818;stroke-width:1.0;" width="10" x="196" y="160.5977"/><rect fill="#FFFFFF" height="14" style="stroke:#181818;stroke-width:1.0;" width="10" x="196" y="1317.1191"/><rect fill="#FFFFFF" height="1117.5215" style="stroke:#181818;stroke-width:1.0;" width="10" x="323.5" y="272.2188"/><rect fill="#FFFFFF" height="810.9688" style="stroke:#181818;stroke-width:1.0;" width="10" x="328.5" y="430.8398"/><rect fill="#FFFFFF" height="57.3105" style="stroke:#181818;stroke-width:1.0;" width="10" x="474.5" y="326.5293"/><rect fill="#FFFFFF" height="57.3105" style="stroke:#181818;stroke-width:1.0;" width="10" x="474.5" y="1303.1191"/><rect fill="#FFFFFF" height="14" style="stroke:#181818;stroke-width:1.0;" width="10" x="555.5" y="340.5293"/><rect fill="#FFFFFF" height="14" style="stroke:#181818;stroke-width:1.0;" width="10" x="555.5" y="935.3242"/><rect fill="#FFFFFF" height="611.416" style="stroke:#181818;stroke-width:1.0;" width="10" x="762" y="522.4609"/><rect fill="#FFFFFF" height="528.1055" style="stroke:#181818;stroke-width:1.0;" width="10" x="767" y="569.4609"/><rect fill="#FFFFFF" height="415.1738" style="stroke:#181818;stroke-width:1.0;" width="10" x="1101" y="617.7715"/><rect fill="#FFFFFF" height="68.3105" style="stroke:#181818;stroke-width:1.0;" width="10" x="1106" y="791.7031"/><rect fill="#FFFFFF" height="57.3105" style="stroke:#181818;stroke-width:1.0;" width="10" x="1276" y="672.082"/><rect fill="#FFFFFF" height="57.3105" style="stroke:#181818;stroke-width:1.0;" width="10" x="1276" y="921.3242"/><rect fill="#FFFFFF" height="14" style="stroke:#181818;stroke-width:1.0;" width="10" x="1351" y="686.082"/><rect fill="#FFFFFF" height="14" style="stroke:#181818;stroke-width:1.0;" width="10" x="1413" y="810.7031"/><line style="stroke:#181818;stroke-width:0.5;stroke-dasharray:5.0,5.0;" x1="28" x2="28" y1="90.2871" y2="1437.0508"/><line style="stroke:#181818;stroke-width:0.5;stroke-dasharray:5.0,5.0;" x1="113" x2="113" y1="90.2871" y2="1437.0508"/><line style="stroke:#181818;stroke-width:0.5;stroke-dasharray:5.0,5.0;" x1="201" x2="201" y1="90.2871" y2="1437.0508"/><line style="stroke:#181818;stroke-width:0.5;stroke-dasharray:5.0,5.0;" x1="328" x2="328" y1="90.2871" y2="1437.0508"/><line style="stroke:#181818;stroke-width:0.5;stroke-dasharray:5.0,5.0;" x1="479.5" x2="479.5" y1="90.2871" y2="1437.0508"/><line style="stroke:#181818;stroke-width:0.5;stroke-dasharray:5.0,5.0;" x1="560.5" x2="560.5" y1="90.2871" y2="1437.0508"/><line style="stroke:#181818;stroke-width:0.5;stroke-dasharray:5.0,5.0;" x1="650.5" x2="650.5" y1="90.2871" y2="1437.0508"/><line style="stroke:#181818;stroke-width:0.5;stroke-dasharray:5.0,5.0;" x1="767" x2="767" y1="90.2871" y2="1437.0508"/><line style="stroke:#181818;stroke-width:0.5;stroke-dasharray:5.0,5.0;" x1="989.5" x2="989.5" y1="90.2871" y2="1437.0508"/><line style="stroke:#181818;stroke-width:0.5;stroke-dasharray:5.0,5.0;" x1="1105.5" x2="1105.5" y1="90.2871" y2="1437.0508"/><line style="stroke:#181818;stroke-width:0.5;stroke-dasharray:5.0,5.0;" x1="1281" x2="1281" y1="90.2871" y2="1437.0508"/><line style="stroke:#181818;stroke-width:0.5;stroke-dasharray:5.0,5.0;" x1="1356" x2="1356" y1="90.2871" y2="1437.0508"/><line style="stroke:#181818;stroke-width:0.5;stroke-dasharray:5.0,5.0;" x1="1418" x2="1418" y1="90.2871" y2="1437.0508"/><text fill="#000000" font-family="sans-serif" font-size="14" lengthAdjust="spacing" textLength="40" x="5" y="87.334">Client</text><ellipse cx="28" cy="22.2988" fill="#E2E2F0" rx="8" ry="8" style="stroke:#181818;stroke-width:0.5;"/><path d="M28,30.2988 L28,57.2988 M15,38.2988 L41,38.2988 M28,57.2988 L15,72.2988 M28,57.2988 L41,72.2988 " fill="none" style="stroke:#181818;stroke-width:0.5;"/><rect fill="#E2E2F0" height="46.9766" rx="2.5" ry="2.5" style="stroke:#181818;stroke-width:0.5;" width="105" x="61" y="42.3105"/><text fill="#000000" font-family="sans-serif" font-size="14" font-style="italic" lengthAdjust="spacing" textLength="91" x="68" y="62.8457">&#171;Framework&#187;</text><text fill="#000000" font-family="sans-serif" font-size="14" lengthAdjust="spacing" textLength="4" x="111.5" y="79.334">&#160;</text><text fill="#000000" font-family="sans-serif" font-size="14" font-style="italic" lengthAdjust="spacing" textLength="44" x="176" y="70.8457">&#171;DTO&#187;</text><text fill="#000000" font-family="sans-serif" font-size="14" lengthAdjust="spacing" textLength="4" x="196" y="87.334">&#160;</text><ellipse cx="201" cy="41.3105" fill="#E2E2F0" rx="12" ry="12" style="stroke:#181818;stroke-width:0.5;"/><line style="stroke:#181818;stroke-width:0.5;" x1="189" x2="213" y1="55.3105" y2="55.3105"/><rect fill="#E2E2F0" height="46.9766" rx="2.5" ry="2.5" style="stroke:#181818;stroke-width:0.5;" width="83" x="287" y="42.3105"/><text fill="#000000" font-family="sans-serif" font-size="14" font-style="italic" lengthAdjust="spacing" textLength="69" x="294" y="62.8457">&#171;Adapter&#187;</text><text fill="#000000" font-family="sans-serif" font-size="14" lengthAdjust="spacing" textLength="4" x="326.5" y="79.334">&#160;</text><rect fill="#E2E2F0" height="46.9766" rx="2.5" ry="2.5" style="stroke:#181818;stroke-width:0.5;" width="80" x="439.5" y="42.3105"/><text fill="#000000" font-family="sans-serif" font-size="14" font-style="italic" lengthAdjust="spacing" textLength="66" x="446.5" y="62.8457">&#171;Mapper&#187;</text><text fill="#000000" font-family="sans-serif" font-size="14" lengthAdjust="spacing" textLength="4" x="477.5" y="79.334">&#160;</text><text fill="#000000" font-family="sans-serif" font-size="14" font-style="italic" lengthAdjust="spacing" textLength="56" x="529.5" y="70.8457">&#171;Model&#187;</text><text fill="#000000" font-family="sans-serif" font-size="14" lengthAdjust="spacing" textLength="4" x="555.5" y="87.334">&#160;</text><ellipse cx="560.5" cy="41.3105" fill="#E2E2F0" rx="12" ry="12" style="stroke:#181818;stroke-width:0.5;"/><line style="stroke:#181818;stroke-width:0.5;" x1="548.5" x2="572.5" y1="55.3105" y2="55.3105"/><rect fill="#E2E2F0" height="46.9766" rx="2.5" ry="2.5" style="stroke:#181818;stroke-width:0.5;" width="99" x="601.5" y="42.3105"/><text fill="#000000" font-family="sans-serif" font-size="14" font-style="italic" lengthAdjust="spacing" textLength="85" x="608.5" y="62.8457">&#171;UseCaseIn&#187;</text><text fill="#000000" font-family="sans-serif" font-size="14" lengthAdjust="spacing" textLength="4" x="649" y="79.334">&#160;</text><rect fill="#E2E2F0" height="46.9766" rx="2.5" ry="2.5" style="stroke:#181818;stroke-width:0.5;" width="76" x="729" y="42.3105"/><text fill="#000000" font-family="sans-serif" font-size="14" font-style="italic" lengthAdjust="spacing" textLength="62" x="736" y="62.8457">&#171;Service&#187;</text><text fill="#000000" font-family="sans-serif" font-size="14" lengthAdjust="spacing" textLength="4" x="765" y="79.334">&#160;</text><rect fill="#E2E2F0" height="46.9766" rx="2.5" ry="2.5" style="stroke:#181818;stroke-width:0.5;" width="111" x="934.5" y="42.3105"/><text fill="#000000" font-family="sans-serif" font-size="14" font-style="italic" lengthAdjust="spacing" textLength="97" x="941.5" y="62.8457">&#171;UseCaseOut&#187;</text><text fill="#000000" font-family="sans-serif" font-size="14" lengthAdjust="spacing" textLength="4" x="988" y="79.334">&#160;</text><rect fill="#E2E2F0" height="46.9766" rx="2.5" ry="2.5" style="stroke:#181818;stroke-width:0.5;" width="83" x="1064.5" y="42.3105"/><text fill="#000000" font-family="sans-serif" font-size="14" font-style="italic" lengthAdjust="spacing" textLength="69" x="1071.5" y="62.8457">&#171;Adapter&#187;</text><text fill="#000000" font-family="sans-serif" font-size="14" lengthAdjust="spacing" textLength="4" x="1104" y="79.334">&#160;</text><rect fill="#E2E2F0" height="46.9766" rx="2.5" ry="2.5" style="stroke:#181818;stroke-width:0.5;" width="80" x="1241" y="42.3105"/><text fill="#000000" font-family="sans-serif" font-size="14" font-style="italic" lengthAdjust="spacing" textLength="66" x="1248" y="62.8457">&#171;Mapper&#187;</text><text fill="#000000" font-family="sans-serif" font-size="14" lengthAdjust="spacing" textLength="4" x="1279" y="79.334">&#160;</text><text fill="#000000" font-family="sans-serif" font-size="14" font-style="italic" lengthAdjust="spacing" textLength="44" x="1331" y="70.8457">&#171;DTO&#187;</text><text fill="#000000" font-family="sans-serif" font-size="14" lengthAdjust="spacing" textLength="4" x="1351" y="87.334">&#160;</text><ellipse cx="1356" cy="41.3105" fill="#E2E2F0" rx="12" ry="12" style="stroke:#181818;stroke-width:0.5;"/><line style="stroke:#181818;stroke-width:0.5;" x1="1344" x2="1368" y1="55.3105" y2="55.3105"/><text fill="#000000" font-family="sans-serif" font-size="14" lengthAdjust="spacing" textLength="48" x="1391" y="87.334">System</text><path d="M1400,37.7988 C1400,27.7988 1418,27.7988 1418,27.7988 C1418,27.7988 1436,27.7988 1436,37.7988 L1436,63.7988 C1436,73.7988 1418,73.7988 1418,73.7988 C1418,73.7988 1400,73.7988 1400,63.7988 L1400,37.7988 " fill="#E2E2F0" style="stroke:#181818;stroke-width:1.5;"/><path d="M1400,37.7988 C1400,47.7988 1418,47.7988 1418,47.7988 C1418,47.7988 1436,47.7988 1436,37.7988 " fill="none" style="stroke:#181818;stroke-width:1.5;"/><rect fill="#FFFFFF" height="1327.7637" style="stroke:#181818;stroke-width:1.0;" width="10" x="23" y="100.2871"/><rect fill="#FFFFFF" height="1297.4531" style="stroke:#181818;stroke-width:1.0;" width="10" x="108.5" y="121.5977"/><rect fill="#FFFFFF" height="14" style="stroke:#181818;stroke-width:1.0;" width="10" x="196" y="160.5977"/><rect fill="#FFFFFF" height="14" style="stroke:#181818;stroke-width:1.0;" width="10" x="196" y="1317.1191"/><rect fill="#FFFFFF" height="1117.5215" style="stroke:#181818;stroke-width:1.0;" width="10" x="323.5" y="272.2188"/><rect fill="#FFFFFF" height="810.9688" style="stroke:#181818;stroke-width:1.0;" width="10" x="328.5" y="430.8398"/><rect fill="#FFFFFF" height="57.3105" style="stroke:#181818;stroke-width:1.0;" width="10" x="474.5" y="326.5293"/><rect fill="#FFFFFF" height="57.3105" style="stroke:#181818;stroke-width:1.0;" width="10" x="474.5" y="1303.1191"/><rect fill="#FFFFFF" height="14" style="stroke:#181818;stroke-width:1.0;" width="10" x="555.5" y="340.5293"/><rect fill="#FFFFFF" height="14" style="stroke:#181818;stroke-width:1.0;" width="10" x="555.5" y="935.3242"/><rect fill="#FFFFFF" height="611.416" style="stroke:#181818;stroke-width:1.0;" width="10" x="762" y="522.4609"/><rect fill="#FFFFFF" height="528.1055" style="stroke:#181818;stroke-width:1.0;" width="10" x="767" y="569.4609"/><rect fill="#FFFFFF" height="415.1738" style="stroke:#181818;stroke-width:1.0;" width="10" x="1101" y="617.7715"/><rect fill="#FFFFFF" height="68.3105" style="stroke:#181818;stroke-width:1.0;" width="10" x="1106" y="791.7031"/><rect fill="#FFFFFF" height="57.3105" style="stroke:#181818;stroke-width:1.0;" width="10" x="1276" y="672.082"/><rect fill="#FFFFFF" height="57.3105" style="stroke:#181818;stroke-width:1.0;" width="10" x="1276" y="921.3242"/><rect fill="#FFFFFF" height="14" style="stroke:#181818;stroke-width:1.0;" width="10" x="1351" y="686.082"/><rect fill="#FFFFFF" height="14" style="stroke:#181818;stroke-width:1.0;" width="10" x="1413" y="810.7031"/><polygon fill="#181818" points="96.5,117.5977,106.5,121.5977,96.5,125.5977,100.5,121.5977" style="stroke:#181818;stroke-width:1.0;"/><line style="stroke:#181818;stroke-width:1.0;" x1="33" x2="102.5" y1="121.5977" y2="121.5977"/><text fill="#000000" font-family="sans-serif" font-size="13" lengthAdjust="spacing" textLength="31" x="40" y="116.8555">JSON</text><polygon fill="#181818" points="184,156.5977,194,160.5977,184,164.5977,188,160.5977" style="stroke:#181818;stroke-width:1.0;"/><line style="stroke:#181818;stroke-width:1.0;" x1="118.5" x2="190" y1="160.5977" y2="160.5977"/><polygon fill="#181818" points="129.5,170.5977,119.5,174.5977,129.5,178.5977,125.5,174.5977" style="stroke:#181818;stroke-width:1.0;"/><line style="stroke:#181818;stroke-width:1.0;stroke-dasharray:2.0,2.0;" x1="123.5" x2="200" y1="174.5977" y2="174.5977"/><rect fill="#EEEEEE" height="3" style="stroke:#EEEEEE;stroke-width:1.0;" width="1450" x="0" y="228.2529"/><line style="stroke:#000000;stroke-width:1.0;" x1="0" x2="1450" y1="228.2529" y2="228.2529"/><line style="stroke:#000000;stroke-width:1.0;" x1="0" x2="1450" y1="231.2529" y2="231.2529"/><rect fill="#EEEEEE" height="23.3105" style="stroke:#000000;stroke-width:2.0;" width="73" x="688.5" y="217.5977"/><text fill="#000000" font-family="sans-serif" font-size="13" font-weight="bold" lengthAdjust="spacing" textLength="55" x="694.5" y="234.166">Request</text><polygon fill="#181818" points="311.5,268.2188,321.5,272.2188,311.5,276.2188,315.5,272.2188" style="stroke:#181818;stroke-width:1.0;"/><line style="stroke:#181818;stroke-width:1.0;" x1="118.5" x2="317.5" y1="272.2188" y2="272.2188"/><text fill="#000000" font-family="sans-serif" font-size="13" lengthAdjust="spacing" textLength="186" x="125.5" y="267.4766">adapterMethod(AdapterInDto)</text><polygon fill="#181818" points="462.5,322.5293,472.5,326.5293,462.5,330.5293,466.5,326.5293" style="stroke:#181818;stroke-width:1.0;"/><line style="stroke:#181818;stroke-width:1.0;" x1="333.5" x2="468.5" y1="326.5293" y2="326.5293"/><text fill="#000000" font-family="sans-serif" font-size="13" lengthAdjust="spacing" textLength="119" x="340.5" y="321.7871">map(AdapterInDto)</text><polygon fill="#181818" points="543.5,336.5293,553.5,340.5293,543.5,344.5293,547.5,340.5293" style="stroke:#181818;stroke-width:1.0;"/><line style="stroke:#181818;stroke-width:1.0;" x1="484.5" x2="549.5" y1="340.5293" y2="340.5293"/><polygon fill="#181818" points="495.5,350.5293,485.5,354.5293,495.5,358.5293,491.5,354.5293" style="stroke:#181818;stroke-width:1.0;"/><line style="stroke:#181818;stroke-width:1.0;stroke-dasharray:2.0,2.0;" x1="489.5" x2="559.5" y1="354.5293" y2="354.5293"/><polygon fill="#181818" points="344.5,379.8398,334.5,383.8398,344.5,387.8398,340.5,383.8398" style="stroke:#181818;stroke-width:1.0;"/><line style="stroke:#181818;stroke-width:1.0;stroke-dasharray:2.0,2.0;" x1="338.5" x2="478.5" y1="383.8398" y2="383.8398"/><text fill="#000000" font-family="sans-serif" font-size="13" lengthAdjust="spacing" textLength="87" x="350.5" y="379.0977">DomainModel</text><line style="stroke:#181818;stroke-width:1.0;" x1="333.5" x2="380.5" y1="417.8398" y2="417.8398"/><line style="stroke:#181818;stroke-width:1.0;" x1="380.5" x2="380.5" y1="417.8398" y2="430.8398"/><line style="stroke:#181818;stroke-width:1.0;" x1="339.5" x2="380.5" y1="430.8398" y2="430.8398"/><polygon fill="#181818" points="349.5,426.8398,339.5,430.8398,349.5,434.8398,345.5,430.8398" style="stroke:#181818;stroke-width:1.0;"/><rect fill="#EEEEEE" height="3" style="stroke:#EEEEEE;stroke-width:1.0;" width="1450" x="0" y="464.4951"/><line style="stroke:#000000;stroke-width:1.0;" x1="0" x2="1450" y1="464.4951" y2="464.4951"/><line style="stroke:#000000;stroke-width:1.0;" x1="0" x2="1450" y1="467.4951" y2="467.4951"/><rect fill="#EEEEEE" height="23.3105" style="stroke:#000000;stroke-width:2.0;" width="108" x="671" y="453.8398"/><text fill="#000000" font-family="sans-serif" font-size="13" font-weight="bold" lengthAdjust="spacing" textLength="90" x="677" y="470.4082">Verarbeitung</text><polygon fill="#181818" points="639,504.4609,649,508.4609,639,512.4609,643,508.4609" style="stroke:#181818;stroke-width:1.0;"/><line style="stroke:#181818;stroke-width:1.0;" x1="338.5" x2="645" y1="508.4609" y2="508.4609"/><text fill="#000000" font-family="sans-serif" font-size="13" lengthAdjust="spacing" textLength="186" x="345.5" y="503.7188">serviceMethod(DomainModel)</text><polygon fill="#181818" points="750,518.4609,760,522.4609,750,526.4609,754,522.4609" style="stroke:#181818;stroke-width:1.0;"/><line style="stroke:#181818;stroke-width:1.0;stroke-dasharray:2.0,2.0;" x1="651" x2="756" y1="522.4609" y2="522.4609"/><line style="stroke:#181818;stroke-width:1.0;" x1="772" x2="819" y1="556.4609" y2="556.4609"/><line style="stroke:#181818;stroke-width:1.0;" x1="819" x2="819" y1="556.4609" y2="569.4609"/><line style="stroke:#181818;stroke-width:1.0;" x1="778" x2="819" y1="569.4609" y2="569.4609"/><polygon fill="#181818" points="788,565.4609,778,569.4609,788,573.4609,784,569.4609" style="stroke:#181818;stroke-width:1.0;"/><polygon fill="#181818" points="978,599.7715,988,603.7715,978,607.7715,982,603.7715" style="stroke:#181818;stroke-width:1.0;"/><line style="stroke:#181818;stroke-width:1.0;" x1="777" x2="984" y1="603.7715" y2="603.7715"/><text fill="#000000" font-family="sans-serif" font-size="13" lengthAdjust="spacing" textLength="189" x="784" y="599.0293">adapterMethod(DomainModel)</text><polygon fill="#181818" points="1089,613.7715,1099,617.7715,1089,621.7715,1093,617.7715" style="stroke:#181818;stroke-width:1.0;"/><line style="stroke:#181818;stroke-width:1.0;stroke-dasharray:2.0,2.0;" x1="990" x2="1095" y1="617.7715" y2="617.7715"/><polygon fill="#181818" points="1264,668.082,1274,672.082,1264,676.082,1268,672.082" style="stroke:#181818;stroke-width:1.0;"/><line style="stroke:#181818;stroke-width:1.0;" x1="1111" x2="1270" y1="672.082" y2="672.082"/><text fill="#000000" font-family="sans-serif" font-size="13" lengthAdjust="spacing" textLength="126" x="1118" y="667.3398">map((DomainModel)</text><polygon fill="#181818" points="1339,682.082,1349,686.082,1339,690.082,1343,686.082" style="stroke:#181818;stroke-width:1.0;"/><line style="stroke:#181818;stroke-width:1.0;" x1="1286" x2="1345" y1="686.082" y2="686.082"/><polygon fill="#181818" points="1297,696.082,1287,700.082,1297,704.082,1293,700.082" style="stroke:#181818;stroke-width:1.0;"/><line style="stroke:#181818;stroke-width:1.0;stroke-dasharray:2.0,2.0;" x1="1291" x2="1355" y1="700.082" y2="700.082"/><polygon fill="#181818" points="1122,725.3926,1112,729.3926,1122,733.3926,1118,729.3926" style="stroke:#181818;stroke-width:1.0;"/><line style="stroke:#181818;stroke-width:1.0;stroke-dasharray:2.0,2.0;" x1="1116" x2="1280" y1="729.3926" y2="729.3926"/><text fill="#000000" font-family="sans-serif" font-size="13" lengthAdjust="spacing" textLength="95" x="1128" y="724.6504">AdapterOutDto</text><line style="stroke:#181818;stroke-width:1.0;" x1="1111" x2="1158" y1="778.7031" y2="778.7031"/><line style="stroke:#181818;stroke-width:1.0;" x1="1158" x2="1158" y1="778.7031" y2="791.7031"/><line style="stroke:#181818;stroke-width:1.0;" x1="1117" x2="1158" y1="791.7031" y2="791.7031"/><polygon fill="#181818" points="1127,787.7031,1117,791.7031,1127,795.7031,1123,791.7031" style="stroke:#181818;stroke-width:1.0;"/><text fill="#000000" font-family="sans-serif" font-size="13" lengthAdjust="spacing" textLength="151" x="1123" y="773.9609">method(AdapterOutDto)</text><polygon fill="#181818" points="1401,806.7031,1411,810.7031,1401,814.7031,1405,810.7031" style="stroke:#181818;stroke-width:1.0;"/><line style="stroke:#181818;stroke-width:1.0;" x1="1116" x2="1407" y1="810.7031" y2="810.7031"/><polygon fill="#181818" points="1127,820.7031,1117,824.7031,1127,828.7031,1123,824.7031" style="stroke:#181818;stroke-width:1.0;"/><line style="stroke:#181818;stroke-width:1.0;stroke-dasharray:2.0,2.0;" x1="1121" x2="1417" y1="824.7031" y2="824.7031"/><line style="stroke:#181818;stroke-width:1.0;stroke-dasharray:2.0,2.0;" x1="1116" x2="1158" y1="859.0137" y2="859.0137"/><line style="stroke:#181818;stroke-width:1.0;stroke-dasharray:2.0,2.0;" x1="1158" x2="1158" y1="859.0137" y2="872.0137"/><line style="stroke:#181818;stroke-width:1.0;stroke-dasharray:2.0,2.0;" x1="1111" x2="1158" y1="872.0137" y2="872.0137"/><polygon fill="#181818" points="1121,868.0137,1111,872.0137,1121,876.0137,1117,872.0137" style="stroke:#181818;stroke-width:1.0;"/><text fill="#000000" font-family="sans-serif" font-size="13" lengthAdjust="spacing" textLength="95" x="1123" y="854.2715">AdapterOutDto</text><polygon fill="#181818" points="1264,917.3242,1274,921.3242,1264,925.3242,1268,921.3242" style="stroke:#181818;stroke-width:1.0;"/><line style="stroke:#181818;stroke-width:1.0;" x1="1111" x2="1270" y1="921.3242" y2="921.3242"/><text fill="#000000" font-family="sans-serif" font-size="13" lengthAdjust="spacing" textLength="130" x="1118" y="916.582">map(AdapterOutDto)</text><polygon fill="#181818" points="576.5,931.3242,566.5,935.3242,576.5,939.3242,572.5,935.3242" style="stroke:#181818;stroke-width:1.0;"/><line style="stroke:#181818;stroke-width:1.0;" x1="570.5" x2="1275" y1="935.3242" y2="935.3242"/><polygon fill="#181818" points="1264,945.3242,1274,949.3242,1264,953.3242,1268,949.3242" style="stroke:#181818;stroke-width:1.0;"/><line style="stroke:#181818;stroke-width:1.0;stroke-dasharray:2.0,2.0;" x1="560.5" x2="1270" y1="949.3242" y2="949.3242"/><polygon fill="#181818" points="1122,974.6348,1112,978.6348,1122,982.6348,1118,978.6348" style="stroke:#181818;stroke-width:1.0;"/><line style="stroke:#181818;stroke-width:1.0;stroke-dasharray:2.0,2.0;" x1="1116" x2="1280" y1="978.6348" y2="978.6348"/><text fill="#000000" font-family="sans-serif" font-size="13" lengthAdjust="spacing" textLength="87" x="1128" y="973.8926">DomainModel</text><polygon fill="#181818" points="1001,1028.9453,991,1032.9453,1001,1036.9453,997,1032.9453" style="stroke:#181818;stroke-width:1.0;"/><line style="stroke:#181818;stroke-width:1.0;stroke-dasharray:2.0,2.0;" x1="995" x2="1105" y1="1032.9453" y2="1032.9453"/><text fill="#000000" font-family="sans-serif" font-size="13" lengthAdjust="spacing" textLength="87" x="1007" y="1028.2031">DomainModel</text><polygon fill="#181818" points="788,1058.2559,778,1062.2559,788,1066.2559,784,1062.2559" style="stroke:#181818;stroke-width:1.0;"/><line style="stroke:#181818;stroke-width:1.0;stroke-dasharray:2.0,2.0;" x1="782" x2="989" y1="1062.2559" y2="1062.2559"/><text fill="#000000" font-family="sans-serif" font-size="13" lengthAdjust="spacing" textLength="87" x="794" y="1057.5137">DomainModel</text><line style="stroke:#181818;stroke-width:1.0;stroke-dasharray:2.0,2.0;" x1="777" x2="819" y1="1096.5664" y2="1096.5664"/><line style="stroke:#181818;stroke-width:1.0;stroke-dasharray:2.0,2.0;" x1="819" x2="819" y1="1096.5664" y2="1109.5664"/><line style="stroke:#181818;stroke-width:1.0;stroke-dasharray:2.0,2.0;" x1="772" x2="819" y1="1109.5664" y2="1109.5664"/><polygon fill="#181818" points="782,1105.5664,772,1109.5664,782,1113.5664,778,1109.5664" style="stroke:#181818;stroke-width:1.0;"/><text fill="#000000" font-family="sans-serif" font-size="13" lengthAdjust="spacing" textLength="87" x="784" y="1091.8242">DomainModel</text><polygon fill="#181818" points="662,1129.877,652,1133.877,662,1137.877,658,1133.877" style="stroke:#181818;stroke-width:1.0;"/><line style="stroke:#181818;stroke-width:1.0;stroke-dasharray:2.0,2.0;" x1="656" x2="766" y1="1133.877" y2="1133.877"/><text fill="#000000" font-family="sans-serif" font-size="13" lengthAdjust="spacing" textLength="87" x="668" y="1129.1348">DomainModel</text><polygon fill="#181818" points="349.5,1159.1875,339.5,1163.1875,349.5,1167.1875,345.5,1163.1875" style="stroke:#181818;stroke-width:1.0;"/><line style="stroke:#181818;stroke-width:1.0;stroke-dasharray:2.0,2.0;" x1="343.5" x2="650" y1="1163.1875" y2="1163.1875"/><text fill="#000000" font-family="sans-serif" font-size="13" lengthAdjust="spacing" textLength="87" x="355.5" y="1158.4453">DomainModel</text><rect fill="#EEEEEE" height="3" style="stroke:#EEEEEE;stroke-width:1.0;" width="1450" x="0" y="1191.8428"/><line style="stroke:#000000;stroke-width:1.0;" x1="0" x2="1450" y1="1191.8428" y2="1191.8428"/><line style="stroke:#000000;stroke-width:1.0;" x1="0" x2="1450" y1="1194.8428" y2="1194.8428"/><rect fill="#EEEEEE" height="23.3105" style="stroke:#000000;stroke-width:2.0;" width="83" x="683.5" y="1181.1875"/><text fill="#000000" font-family="sans-serif" font-size="13" font-weight="bold" lengthAdjust="spacing" textLength="65" x="689.5" y="1197.7559">Response</text><line style="stroke:#181818;stroke-width:1.0;stroke-dasharray:2.0,2.0;" x1="338.5" x2="380.5" y1="1240.8086" y2="1240.8086"/><line style="stroke:#181818;stroke-width:1.0;stroke-dasharray:2.0,2.0;" x1="380.5" x2="380.5" y1="1240.8086" y2="1253.8086"/><line style="stroke:#181818;stroke-width:1.0;stroke-dasharray:2.0,2.0;" x1="333.5" x2="380.5" y1="1253.8086" y2="1253.8086"/><polygon fill="#181818" points="343.5,1249.8086,333.5,1253.8086,343.5,1257.8086,339.5,1253.8086" style="stroke:#181818;stroke-width:1.0;"/><text fill="#000000" font-family="sans-serif" font-size="13" lengthAdjust="spacing" textLength="87" x="345.5" y="1236.0664">DomainModel</text><polygon fill="#181818" points="462.5,1299.1191,472.5,1303.1191,462.5,1307.1191,466.5,1303.1191" style="stroke:#181818;stroke-width:1.0;"/><line style="stroke:#181818;stroke-width:1.0;" x1="333.5" x2="468.5" y1="1303.1191" y2="1303.1191"/><text fill="#000000" font-family="sans-serif" font-size="13" lengthAdjust="spacing" textLength="122" x="340.5" y="1298.377">map(DomainModel)</text><polygon fill="#181818" points="217,1313.1191,207,1317.1191,217,1321.1191,213,1317.1191" style="stroke:#181818;stroke-width:1.0;"/><line style="stroke:#181818;stroke-width:1.0;" x1="211" x2="473.5" y1="1317.1191" y2="1317.1191"/><polygon fill="#181818" points="462.5,1327.1191,472.5,1331.1191,462.5,1335.1191,466.5,1331.1191" style="stroke:#181818;stroke-width:1.0;"/><line style="stroke:#181818;stroke-width:1.0;stroke-dasharray:2.0,2.0;" x1="201" x2="468.5" y1="1331.1191" y2="1331.1191"/><polygon fill="#181818" points="344.5,1356.4297,334.5,1360.4297,344.5,1364.4297,340.5,1360.4297" style="stroke:#181818;stroke-width:1.0;"/><line style="stroke:#181818;stroke-width:1.0;stroke-dasharray:2.0,2.0;" x1="338.5" x2="478.5" y1="1360.4297" y2="1360.4297"/><text fill="#000000" font-family="sans-serif" font-size="13" lengthAdjust="spacing" textLength="84" x="350.5" y="1355.6875">AdapterInDto</text><polygon fill="#181818" points="129.5,1385.7402,119.5,1389.7402,129.5,1393.7402,125.5,1389.7402" style="stroke:#181818;stroke-width:1.0;"/><line style="stroke:#181818;stroke-width:1.0;stroke-dasharray:2.0,2.0;" x1="123.5" x2="327.5" y1="1389.7402" y2="1389.7402"/><text fill="#000000" font-family="sans-serif" font-size="13" lengthAdjust="spacing" textLength="84" x="135.5" y="1384.998">AdapterInDto</text><polygon fill="#181818" points="44,1415.0508,34,1419.0508,44,1423.0508,40,1419.0508" style="stroke:#181818;stroke-width:1.0;"/><line style="stroke:#181818;stroke-width:1.0;stroke-dasharray:2.0,2.0;" x1="38" x2="112.5" y1="1419.0508" y2="1419.0508"/><text fill="#000000" font-family="sans-serif" font-size="13" lengthAdjust="spacing" textLength="31" x="50" y="1414.3086">JSON</text><!--SRC=[pLV1ZjiW4BtdAv1xwHxI3x0saTfaLqhLD5BJzavYTeDgWulnjYlbupksiGt4nk1UbXm2PjxCOsOOu48JWfuuboV-Tx70Pya5sgIKC5aDw0kMf1ql5WXQZeMaPvfZ9b44FroWRwIGJsMAxkyV1Sx87ov-hTUrS8D4otKh4wFFnyFNUkvwlIx0A8e-9ZYNH7pOiQYU00ILhwroDRjZMyd1mlRxGUdkw2dLzSUgjNJ0gWxkvZlWuAmWiXIi6rOis_x0qZUSIS7Jb0ZWflG1lzKAMFmkWGXQhOQ8zRWOuGQs9_B2a_SwgRjRpZsmcxDfZaU9b-9CzZZFQxfDHtcpRTg2cgXfc1XbEBS84fQWAdNgI6vvXYcBqBilzFaYFwKbCNIRWMs4zpmXLURK_nONFS8Q3KD6-LLV6V3MTDz8TrfTGbOMz9z6KHuH-56G3Ix8Zi5wkxwrvW7OaOWNUYO0KZrdoBG4WIpyIGGM9q9boPxrL1pBAOVYddsCYeQ8IbdD9NStdcnR3r-2ChMIKUcEsvJWaEljrZhGmswmRNUe3wNiOmq3AtBjvj6_6IKH8D4SymhVcE_BqfGcpL4zPxj0UKNRYdf5PDdNOnXE8kqgxOFnIGQ7rnxg-kIkZsDDypYiqz3KbCqmlnaUqBLv8KTFKQ1d7wC-pLYE4KRzv9mHqH3uG4bsYywmuviyPhIrKPmPftXZEZ3S8ma_L2nSBS4Ids3leUDh8KdcZJFN5WZkQsSOxkq6Ts0h_qzmP-rbU_-vRYwJ3EQ0myCJQiKdE3DKM-UFEk1YRnq19WD4pRkGzXRGmVKReiWvWoritTm2hwBJT_hHisd-5NpmSUNt19k-X3jURhTpwdlryFm7]--></g></svg>