<?xml version="1.0" encoding="us-ascii" standalone="no"?><svg xmlns="http://www.w3.org/2000/svg" xmlns:xlink="http://www.w3.org/1999/xlink" contentStyleType="text/css" height="1074px" preserveAspectRatio="none" style="width:1468px;height:1074px;background:#FFFFFF;" version="1.1" viewBox="0 0 1468 1074" width="1468px" zoomAndPan="magnify"><defs/><g><!--cluster cloud.in--><g id="cluster_cloud.in"><path d="M205.4548,132.3034 C208.9989,125.7339 213.3997,125.1447 217.8507,131.4287 C220.9373,125.1271 225.0807,125.8478 229.0617,130.5145 C231.8002,126.3437 235.4971,125.6705 238.532,130.1915 C241.656,124.7455 246.975,124.398 249.9228,130.3674 C251.9808,125.3598 256.3239,123.1686 260.4448,128.2068 C265.283,122.9726 268.4709,124.1305 271.3363,130.121 C274.276,123.6951 279.5694,122.8794 283.4147,129.2674 C286.9346,124.7339 291.0629,124.7256 294.1131,129.791 C298.2035,125.2206 303.4579,125.8129 305.7009,131.8157 C308.822,126.2027 314.2015,126.7086 317.0802,132.0671 C323.196,136.3238 323.0905,142.4915 315.8819,145.5654 C323.0641,148.9899 324.1462,154.62 317.6195,159.7266 C323.6589,163.4073 322.7551,168.103 317.6492,171.8112 C325.3865,175.9361 325.2449,181.4237 318.2733,186.1871 C324.7632,191.5552 322.523,197.1647 315.7448,200.126 C323.1304,204.5957 322.9799,209.5206 316.1939,214.4351 C312.919,219.9479 308.5724,220.4133 305.2883,214.4439 C303.2783,220.9442 298.1754,221.6803 293.8662,216.7392 C290.756,222.1808 285.4255,221.9085 282.4569,216.589 C280.3774,221.7524 275.7143,224.0265 271.6027,218.6898 C269.3522,223.535 265.225,223.8813 262.0247,219.6972 C257.1613,225.2243 251.8375,224.0793 249.2562,217.3246 C246.2774,221.8217 242.3035,221.0271 239.8438,216.7668 C235.8586,222.1281 229.9512,222.8007 227.0657,215.6443 C224.32,219.6748 220.0204,219.2559 217.9719,214.8893 C214.0191,219.5869 208.7644,219.3024 206.3368,213.24 C198.7643,209.7951 199.8944,203.4464 205.7242,199.408 C198.1415,196.5011 197.9496,190.3476 204.2178,185.8964 C197.474,182.9377 196.8044,178.9428 201.2825,173.3572 C195.8016,167.6706 196.3008,162.4832 203.5033,158.7211 C196.5596,154.5863 198.2305,149.0803 204.0726,145.496 C198.5908,140.9176 197.9105,135.5171 205.4548,132.3034 " fill="none" style="stroke:#181818;stroke-width:1.0;"/><text fill="#000000" font-family="sans-serif" font-size="14" font-weight="bold" lengthAdjust="spacing" textLength="5" x="257.5" y="149.5422">&#160;</text></g><!--cluster cloud.out--><g id="cluster_cloud.out"><path d="M773.4518,21.6097 C776.954,14.5276 781.8114,12.7216 787.8844,18.7878 C791.1485,11.6078 798.4677,10.3193 803.102,17.3171 C805.3845,11.3224 811.1577,10.2181 815.4959,14.9395 C818.4128,6.6388 825.8559,6 830.8018,12.8959 C835.9609,8.1408 839.8391,8.5023 843.253,14.8526 C848.6846,8.3539 853.9374,9.7122 857.0305,17.1624 C862.1867,9.8267 868.7225,10.6738 873.1069,18.0081 C883.2997,12.7231 889.7437,15.6295 892,27.0071 C893.1921,26.1593 894.0608,26.8901 894.1278,28.1454 C901.0332,31.2129 901.3963,37.0474 895.5608,41.4837 C902.1969,45.6544 901.8854,51.5946 896.1479,56.2571 C903.3207,60.2794 903.2147,66.3641 895.6956,69.8994 C903.4298,72.7679 902.6246,79.5746 896.9557,83.6696 C904.5487,87.2983 904.9587,93.4938 898.5024,98.5798 C904.7426,102.3306 904.9031,107.7369 899.5847,112.3933 C905.4212,117.2805 906.3303,122.3468 899.1638,126.8556 C904.9868,131.5597 904.9064,136.8503 898.914,141.3509 C904.8757,146.3999 904.0667,153.5271 896.3245,156.1836 C901.7965,160.0862 900.8121,166.0762 895.3039,169.112 C901.807,173.792 902.1005,180.5947 894.0555,184.0597 C898.8457,194.2821 896.2471,200.5936 885,203.2471 C886.4346,202.8058 887.6785,203.3647 887.4119,205.1173 C883.4287,211.742 875.9965,213.1255 872.2279,204.898 C867.9952,212.364 862.7941,211.3923 858.6047,204.856 C855.0024,211.6412 848.7671,211.7821 844.1732,205.9943 C839.493,213.0491 834.9025,213.8006 829.3855,206.8797 C825.3454,213.1066 820.2521,212.5566 816.4811,206.5947 C811.4434,213.076 805.113,213.2942 801.4686,205.1633 C796.4324,210.9334 791.6598,211.8354 787.1171,204.618 C775.7747,213.0513 769.0209,208.8059 766,196.2471 C766.9952,195.9639 767.6619,196.2208 767.591,197.4038 C761.3619,193.9369 759.8398,187.1241 767.2741,183.349 C760.1197,180.3917 759.1887,174.6888 764.8181,169.4693 C758.7139,165.3777 758.3283,160.7987 764.2156,156.1641 C756.4362,152.3458 755.3585,146.8532 762.4716,141.2889 C756.6577,137.383 754.8009,132.669 761.5952,127.9356 C755.2353,123.7618 754.2251,119.2912 760.3154,113.976 C752.7447,109.2769 753.3413,103.1496 761.1119,99.2821 C754.2137,94.5858 754.4402,88.3005 762.256,84.7636 C755.1926,80.3404 755.7261,73.4601 763.0666,69.8182 C757.9882,64.2964 757.4831,58.933 765.3088,55.4208 C758.9248,50.8867 758.9802,46.2561 765.7712,42.1822 C756.6324,32.2181 760.3718,22.8753 773,20.0071 C773.9748,20.1983 774.0661,20.9705 773.4518,21.6097 " fill="none" style="stroke:#181818;stroke-width:1.0;"/><text fill="#000000" font-family="sans-serif" font-size="14" font-weight="bold" lengthAdjust="spacing" textLength="5" x="826.5" y="38.5422">&#160;</text></g><!--cluster cloud.out.component--><g id="cluster_cloud.out.component"><rect fill="none" height="134.24" rx="2.5" ry="2.5" style="stroke:#181818;stroke-width:1.0;" width="110" x="774" y="47.0071"/><rect fill="none" height="10" style="stroke:#181818;stroke-width:1.0;" width="15" x="864" y="52.0071"/><rect fill="none" height="2" style="stroke:#181818;stroke-width:1.0;" width="4" x="862" y="54.0071"/><rect fill="none" height="2" style="stroke:#181818;stroke-width:1.0;" width="4" x="862" y="58.0071"/><text fill="#000000" font-family="sans-serif" font-size="14" font-style="italic" lengthAdjust="spacing" textLength="62" x="798" y="73.5422">&#171;System&#187;</text><text fill="#000000" font-family="sans-serif" font-size="14" font-weight="bold" lengthAdjust="spacing" textLength="5" x="826.5" y="90.0305">&#160;</text></g><!--cluster App--><g id="cluster_App"><path d="M8.5,244.4871 L37.5,244.4871 A3.75,3.75 0 0 1 40,246.9871 L47,266.9754 L1458.5,266.9754 A2.5,2.5 0 0 1 1461,269.4754 L1461,1064.9671 A2.5,2.5 0 0 1 1458.5,1067.4671 L8.5,1067.4671 A2.5,2.5 0 0 1 6,1064.9671 L6,246.9871 A2.5,2.5 0 0 1 8.5,244.4871 " fill="none" style="stroke:#000000;stroke-width:1.5;"/><line style="stroke:#000000;stroke-width:1.5;" x1="6" x2="47" y1="266.9754" y2="266.9754"/><text fill="#000000" font-family="sans-serif" font-size="14" font-weight="bold" lengthAdjust="spacing" textLength="28" x="10" y="260.0222">App</text></g><!--cluster Business Module--><g id="cluster_Business Module"><path d="M32.5,287.4871 L155.5,287.4871 A3.75,3.75 0 0 1 158,289.9871 L165,309.9754 L998.5,309.9754 A2.5,2.5 0 0 1 1001,312.4754 L1001,1040.9671 A2.5,2.5 0 0 1 998.5,1043.4671 L32.5,1043.4671 A2.5,2.5 0 0 1 30,1040.9671 L30,289.9871 A2.5,2.5 0 0 1 32.5,287.4871 " fill="none" style="stroke:#000000;stroke-width:1.5;"/><line style="stroke:#000000;stroke-width:1.5;" x1="30" x2="165" y1="309.9754" y2="309.9754"/><text fill="#000000" font-family="sans-serif" font-size="14" font-weight="bold" lengthAdjust="spacing" textLength="122" x="34" y="303.0222">Business Module</text></g><!--cluster adapter--><g id="cluster_adapter"><path d="M56.5,330.4871 L111.5,330.4871 A3.75,3.75 0 0 1 114,332.9871 L121,352.9754 L974.5,352.9754 A2.5,2.5 0 0 1 977,355.4754 L977,677.7271 A2.5,2.5 0 0 1 974.5,680.2271 L56.5,680.2271 A2.5,2.5 0 0 1 54,677.7271 L54,332.9871 A2.5,2.5 0 0 1 56.5,330.4871 " fill="none" style="stroke:#000000;stroke-width:1.5;"/><line style="stroke:#000000;stroke-width:1.5;" x1="54" x2="121" y1="352.9754" y2="352.9754"/><text fill="#000000" font-family="sans-serif" font-size="14" font-weight="bold" lengthAdjust="spacing" textLength="54" x="58" y="346.0222">adapter</text></g><!--cluster adapter.in--><g id="cluster_adapter.in"><path d="M72.5,431.7371 L87.5,431.7371 A3.75,3.75 0 0 1 90,434.2371 L97,454.2254 L533.5,454.2254 A2.5,2.5 0 0 1 536,456.7254 L536,661.7271 A2.5,2.5 0 0 1 533.5,664.2271 L72.5,664.2271 A2.5,2.5 0 0 1 70,661.7271 L70,434.2371 A2.5,2.5 0 0 1 72.5,431.7371 " fill="#D3D3D3" style="stroke:#000000;stroke-width:1.5;"/><line style="stroke:#000000;stroke-width:1.5;" x1="70" x2="97" y1="454.2254" y2="454.2254"/><text fill="#000000" font-family="sans-serif" font-size="14" font-weight="bold" lengthAdjust="spacing" textLength="14" x="74" y="447.2722">in</text></g><!--cluster adapter.out--><g id="cluster_adapter.out"><path d="M554.5,373.4871 L579.5,373.4871 A3.75,3.75 0 0 1 582,375.9871 L589,395.9754 L950.5,395.9754 A2.5,2.5 0 0 1 953,398.4754 L953,468.4771 A2.5,2.5 0 0 1 950.5,470.9771 L554.5,470.9771 A2.5,2.5 0 0 1 552,468.4771 L552,375.9871 A2.5,2.5 0 0 1 554.5,373.4871 " fill="#D3D3D3" style="stroke:#000000;stroke-width:1.5;"/><line style="stroke:#000000;stroke-width:1.5;" x1="552" x2="589" y1="395.9754" y2="395.9754"/><text fill="#000000" font-family="sans-serif" font-size="14" font-weight="bold" lengthAdjust="spacing" textLength="24" x="556" y="389.0222">out</text></g><!--cluster domain--><g id="cluster_domain"><path d="M358.5,721.9771 L413.5,721.9771 A3.75,3.75 0 0 1 416,724.4771 L423,744.4654 L618.5,744.4654 A2.5,2.5 0 0 1 621,746.9654 L621,816.9671 A2.5,2.5 0 0 1 618.5,819.4671 L358.5,819.4671 A2.5,2.5 0 0 1 356,816.9671 L356,724.4771 A2.5,2.5 0 0 1 358.5,721.9771 " fill="#ADD8E6" style="stroke:#000000;stroke-width:1.5;"/><line style="stroke:#000000;stroke-width:1.5;" x1="356" x2="423" y1="744.4654" y2="744.4654"/><text fill="#000000" font-family="sans-serif" font-size="14" font-weight="bold" lengthAdjust="spacing" textLength="54" x="360" y="737.5122">domain</text></g><!--cluster usecase--><g id="cluster_usecase"><path d="M281.5,843.4671 L338.5,843.4671 A3.75,3.75 0 0 1 341,845.9671 L348,865.9554 L580.5,865.9554 A2.5,2.5 0 0 1 583,868.4554 L583,1016.9671 A2.5,2.5 0 0 1 580.5,1019.4671 L281.5,1019.4671 A2.5,2.5 0 0 1 279,1016.9671 L279,845.9671 A2.5,2.5 0 0 1 281.5,843.4671 " fill="#ADD8E6" style="stroke:#000000;stroke-width:1.5;"/><line style="stroke:#000000;stroke-width:1.5;" x1="279" x2="348" y1="865.9554" y2="865.9554"/><text fill="#000000" font-family="sans-serif" font-size="14" font-weight="bold" lengthAdjust="spacing" textLength="56" x="283" y="859.0022">usecase</text></g><!--cluster usecase.in--><g id="cluster_usecase.in"><path d="M305.5,886.4671 L320.5,886.4671 A3.75,3.75 0 0 1 323,888.9671 L330,908.9554 L416.5,908.9554 A2.5,2.5 0 0 1 419,911.4554 L419,992.9671 A2.5,2.5 0 0 1 416.5,995.4671 L305.5,995.4671 A2.5,2.5 0 0 1 303,992.9671 L303,888.9671 A2.5,2.5 0 0 1 305.5,886.4671 " fill="#FFFFFF" style="stroke:#000000;stroke-width:1.5;"/><line style="stroke:#000000;stroke-width:1.5;" x1="303" x2="330" y1="908.9554" y2="908.9554"/><text fill="#000000" font-family="sans-serif" font-size="14" font-weight="bold" lengthAdjust="spacing" textLength="14" x="307" y="902.0022">in</text></g><!--cluster usecase.out--><g id="cluster_usecase.out"><path d="M445.5,886.4671 L470.5,886.4671 A3.75,3.75 0 0 1 473,888.9671 L480,908.9554 L556.5,908.9554 A2.5,2.5 0 0 1 559,911.4554 L559,992.9671 A2.5,2.5 0 0 1 556.5,995.4671 L445.5,995.4671 A2.5,2.5 0 0 1 443,992.9671 L443,888.9671 A2.5,2.5 0 0 1 445.5,886.4671 " fill="#FFFFFF" style="stroke:#000000;stroke-width:1.5;"/><line style="stroke:#000000;stroke-width:1.5;" x1="443" x2="480" y1="908.9554" y2="908.9554"/><text fill="#000000" font-family="sans-serif" font-size="14" font-weight="bold" lengthAdjust="spacing" textLength="24" x="447" y="902.0022">out</text></g><!--cluster Business Module <secondary>--><g id="cluster_Business Module &lt;secondary&gt;"><path d="M1027.5,494.9771 L1249.5,494.9771 A3.75,3.75 0 0 1 1252,497.4771 L1259,517.4654 L1434.5,517.4654 A2.5,2.5 0 0 1 1437,519.9654 L1437,695.4771 A2.5,2.5 0 0 1 1434.5,697.9771 L1027.5,697.9771 A2.5,2.5 0 0 1 1025,695.4771 L1025,497.4771 A2.5,2.5 0 0 1 1027.5,494.9771 " fill="none" style="stroke:#000000;stroke-width:1.5;"/><line style="stroke:#000000;stroke-width:1.5;" x1="1025" x2="1259" y1="517.4654" y2="517.4654"/><text fill="#000000" font-family="sans-serif" font-size="14" font-weight="bold" lengthAdjust="spacing" textLength="221" x="1029" y="510.5122">Business Module &lt;secondary&gt;</text></g><!--cluster usecase <secondary>--><g id="cluster_usecase &lt;secondary&gt;"><path d="M1051.5,537.9771 L1207.5,537.9771 A3.75,3.75 0 0 1 1210,540.4771 L1217,560.4654 L1217.5,560.4654 A2.5,2.5 0 0 1 1220,562.9654 L1220,671.4771 A2.5,2.5 0 0 1 1217.5,673.9771 L1051.5,673.9771 A2.5,2.5 0 0 1 1049,671.4771 L1049,540.4771 A2.5,2.5 0 0 1 1051.5,537.9771 " fill="none" style="stroke:#000000;stroke-width:1.5;"/><line style="stroke:#000000;stroke-width:1.5;" x1="1049" x2="1217" y1="560.4654" y2="560.4654"/><text fill="#000000" font-family="sans-serif" font-size="14" font-weight="bold" lengthAdjust="spacing" textLength="155" x="1053" y="553.5122">usecase &lt;secondary&gt;</text></g><!--cluster usecase.in.secondary--><g id="cluster_usecase.in.secondary"><path d="M1111.5,580.9771 L1126.5,580.9771 A3.75,3.75 0 0 1 1129,583.4771 L1136,603.4654 L1156.5,603.4654 A2.5,2.5 0 0 1 1159,605.9654 L1159,647.4771 A2.5,2.5 0 0 1 1156.5,649.9771 L1111.5,649.9771 A2.5,2.5 0 0 1 1109,647.4771 L1109,583.4771 A2.5,2.5 0 0 1 1111.5,580.9771 " fill="none" style="stroke:#000000;stroke-width:1.5;"/><line style="stroke:#000000;stroke-width:1.5;" x1="1109" x2="1136" y1="603.4654" y2="603.4654"/><text fill="#000000" font-family="sans-serif" font-size="14" font-weight="bold" lengthAdjust="spacing" textLength="14" x="1113" y="596.5122">in</text></g><!--cluster domain <secondary>--><g id="cluster_domain &lt;secondary&gt;"><path d="M1246.5,566.7371 L1400.5,566.7371 A3.75,3.75 0 0 1 1403,569.2371 L1410,589.2254 L1410.5,589.2254 A2.5,2.5 0 0 1 1413,591.7254 L1413,661.7271 A2.5,2.5 0 0 1 1410.5,664.2271 L1246.5,664.2271 A2.5,2.5 0 0 1 1244,661.7271 L1244,569.2371 A2.5,2.5 0 0 1 1246.5,566.7371 " fill="none" style="stroke:#000000;stroke-width:1.5;"/><line style="stroke:#000000;stroke-width:1.5;" x1="1244" x2="1410" y1="589.2254" y2="589.2254"/><text fill="#000000" font-family="sans-serif" font-size="14" font-weight="bold" lengthAdjust="spacing" textLength="153" x="1248" y="582.2722">domain &lt;secondary&gt;</text></g><!--entity cloud.in.component--><g id="elem_cloud.in.component"><rect fill="#F1F1F1" height="46.4883" rx="2.5" ry="2.5" style="stroke:#181818;stroke-width:0.5;" width="94" x="213" y="158.0071"/><rect fill="#F1F1F1" height="10" style="stroke:#181818;stroke-width:0.5;" width="15" x="287" y="163.0071"/><rect fill="#F1F1F1" height="2" style="stroke:#181818;stroke-width:0.5;" width="4" x="285" y="165.0071"/><rect fill="#F1F1F1" height="2" style="stroke:#181818;stroke-width:0.5;" width="4" x="285" y="169.0071"/><text fill="#000000" font-family="sans-serif" font-size="14" font-style="italic" lengthAdjust="spacing" textLength="54" x="228" y="191.5422">&#171;Client&#187;</text></g><text fill="#000000" font-family="sans-serif" font-size="14" lengthAdjust="spacing" textLength="4" x="827" y="200.7822">&#160;</text><rect fill="#F1F1F1" height="12" style="stroke:#181818;stroke-width:1.5;" width="12" x="823" y="175.2471"/><!--entity adapter.in.component--><g id="elem_adapter.in.component"><rect fill="#F1F1F1" height="46.4883" rx="2.5" ry="2.5" style="stroke:#181818;stroke-width:0.5;" width="109" x="205.5" y="601.7371"/><rect fill="#F1F1F1" height="10" style="stroke:#181818;stroke-width:0.5;" width="15" x="294.5" y="606.7371"/><rect fill="#F1F1F1" height="2" style="stroke:#181818;stroke-width:0.5;" width="4" x="292.5" y="608.7371"/><rect fill="#F1F1F1" height="2" style="stroke:#181818;stroke-width:0.5;" width="4" x="292.5" y="612.7371"/><text fill="#000000" font-family="sans-serif" font-size="14" font-style="italic" lengthAdjust="spacing" textLength="69" x="220.5" y="635.2722">&#171;Adapter&#187;</text></g><!--entity adapter.in.dto--><g id="elem_adapter.in.dto"><rect fill="#F1F1F1" height="46.4883" rx="2.5" ry="2.5" style="stroke:#181818;stroke-width:0.5;" width="84" x="86" y="601.7371"/><rect fill="#F1F1F1" height="10" style="stroke:#181818;stroke-width:0.5;" width="15" x="150" y="606.7371"/><rect fill="#F1F1F1" height="2" style="stroke:#181818;stroke-width:0.5;" width="4" x="148" y="608.7371"/><rect fill="#F1F1F1" height="2" style="stroke:#181818;stroke-width:0.5;" width="4" x="148" y="612.7371"/><text fill="#000000" font-family="sans-serif" font-size="14" font-style="italic" lengthAdjust="spacing" textLength="44" x="101" y="635.2722">&#171;DTO&#187;</text></g><!--entity adapter.in.mapper--><g id="elem_adapter.in.mapper"><rect fill="#F1F1F1" height="46.4883" rx="2.5" ry="2.5" style="stroke:#181818;stroke-width:0.5;" width="106" x="349" y="601.7371"/><rect fill="#F1F1F1" height="10" style="stroke:#181818;stroke-width:0.5;" width="15" x="435" y="606.7371"/><rect fill="#F1F1F1" height="2" style="stroke:#181818;stroke-width:0.5;" width="4" x="433" y="608.7371"/><rect fill="#F1F1F1" height="2" style="stroke:#181818;stroke-width:0.5;" width="4" x="433" y="612.7371"/><text fill="#000000" font-family="sans-serif" font-size="14" font-style="italic" lengthAdjust="spacing" textLength="66" x="364" y="635.2722">&#171;Mapper&#187;</text></g><text fill="#000000" font-family="sans-serif" font-size="14" lengthAdjust="spacing" textLength="4" x="258" y="410.7839">&#160;</text><rect fill="#F1F1F1" height="12" style="stroke:#181818;stroke-width:1.5;" width="12" x="254" y="425.7371"/><!--entity adapter.out.component--><g id="elem_adapter.out.component"><rect fill="#F1F1F1" height="46.4883" rx="2.5" ry="2.5" style="stroke:#181818;stroke-width:0.5;" width="109" x="708.5" y="408.4871"/><rect fill="#F1F1F1" height="10" style="stroke:#181818;stroke-width:0.5;" width="15" x="797.5" y="413.4871"/><rect fill="#F1F1F1" height="2" style="stroke:#181818;stroke-width:0.5;" width="4" x="795.5" y="415.4871"/><rect fill="#F1F1F1" height="2" style="stroke:#181818;stroke-width:0.5;" width="4" x="795.5" y="419.4871"/><text fill="#000000" font-family="sans-serif" font-size="14" font-style="italic" lengthAdjust="spacing" textLength="69" x="723.5" y="442.0222">&#171;Adapter&#187;</text></g><!--entity adapter.out.dto--><g id="elem_adapter.out.dto"><rect fill="#F1F1F1" height="46.4883" rx="2.5" ry="2.5" style="stroke:#181818;stroke-width:0.5;" width="84" x="853" y="408.4871"/><rect fill="#F1F1F1" height="10" style="stroke:#181818;stroke-width:0.5;" width="15" x="917" y="413.4871"/><rect fill="#F1F1F1" height="2" style="stroke:#181818;stroke-width:0.5;" width="4" x="915" y="415.4871"/><rect fill="#F1F1F1" height="2" style="stroke:#181818;stroke-width:0.5;" width="4" x="915" y="419.4871"/><text fill="#000000" font-family="sans-serif" font-size="14" font-style="italic" lengthAdjust="spacing" textLength="44" x="868" y="442.0222">&#171;DTO&#187;</text></g><!--entity adapter.out.mapper--><g id="elem_adapter.out.mapper"><rect fill="#F1F1F1" height="46.4883" rx="2.5" ry="2.5" style="stroke:#181818;stroke-width:0.5;" width="106" x="568" y="408.4871"/><rect fill="#F1F1F1" height="10" style="stroke:#181818;stroke-width:0.5;" width="15" x="654" y="413.4871"/><rect fill="#F1F1F1" height="2" style="stroke:#181818;stroke-width:0.5;" width="4" x="652" y="415.4871"/><rect fill="#F1F1F1" height="2" style="stroke:#181818;stroke-width:0.5;" width="4" x="652" y="419.4871"/><text fill="#000000" font-family="sans-serif" font-size="14" font-style="italic" lengthAdjust="spacing" textLength="66" x="583" y="442.0222">&#171;Mapper&#187;</text></g><!--entity domain.model--><g id="elem_domain.model"><rect fill="#F1F1F1" height="46.4883" rx="2.5" ry="2.5" style="stroke:#181818;stroke-width:0.5;" width="96" x="509" y="756.9771"/><rect fill="#F1F1F1" height="10" style="stroke:#181818;stroke-width:0.5;" width="15" x="585" y="761.9771"/><rect fill="#F1F1F1" height="2" style="stroke:#181818;stroke-width:0.5;" width="4" x="583" y="763.9771"/><rect fill="#F1F1F1" height="2" style="stroke:#181818;stroke-width:0.5;" width="4" x="583" y="767.9771"/><text fill="#000000" font-family="sans-serif" font-size="14" font-style="italic" lengthAdjust="spacing" textLength="56" x="524" y="790.5122">&#171;Model&#187;</text></g><!--entity domain.service--><g id="elem_domain.service"><rect fill="#F1F1F1" height="46.4883" rx="2.5" ry="2.5" style="stroke:#181818;stroke-width:0.5;" width="102" x="372" y="756.9771"/><rect fill="#F1F1F1" height="10" style="stroke:#181818;stroke-width:0.5;" width="15" x="454" y="761.9771"/><rect fill="#F1F1F1" height="2" style="stroke:#181818;stroke-width:0.5;" width="4" x="452" y="763.9771"/><rect fill="#F1F1F1" height="2" style="stroke:#181818;stroke-width:0.5;" width="4" x="452" y="767.9771"/><text fill="#000000" font-family="sans-serif" font-size="14" font-style="italic" lengthAdjust="spacing" textLength="62" x="387" y="790.5122">&#171;Service&#187;</text></g><!--entity usecase.in.component--><g id="elem_usecase.in.component"><ellipse cx="361" cy="950.4671" fill="#F1F1F1" rx="8" ry="8" style="stroke:#181818;stroke-width:0.5;"/><text fill="#000000" font-family="sans-serif" font-size="14" font-style="italic" lengthAdjust="spacing" textLength="69" x="326.5" y="930.5139">&#171;Usecase&#187;</text></g><!--entity usecase.out.component--><g id="elem_usecase.out.component"><ellipse cx="501" cy="950.4671" fill="#F1F1F1" rx="8" ry="8" style="stroke:#181818;stroke-width:0.5;"/><text fill="#000000" font-family="sans-serif" font-size="14" font-style="italic" lengthAdjust="spacing" textLength="69" x="466.5" y="930.5139">&#171;Usecase&#187;</text></g><!--entity usecase.in.secondary.component--><g id="elem_usecase.in.secondary.component"><ellipse cx="1134" cy="624.9771" fill="#F1F1F1" rx="8" ry="8" style="stroke:#181818;stroke-width:0.5;"/><text fill="#000000" font-family="sans-serif" font-size="14" font-style="italic" lengthAdjust="spacing" textLength="69" x="1099.5" y="605.0239">&#171;Usecase&#187;</text></g><!--entity domain.secondary.service--><g id="elem_domain.secondary.service"><rect fill="#F1F1F1" height="46.4883" rx="2.5" ry="2.5" style="stroke:#181818;stroke-width:0.5;" width="102" x="1260" y="601.7371"/><rect fill="#F1F1F1" height="10" style="stroke:#181818;stroke-width:0.5;" width="15" x="1342" y="606.7371"/><rect fill="#F1F1F1" height="2" style="stroke:#181818;stroke-width:0.5;" width="4" x="1340" y="608.7371"/><rect fill="#F1F1F1" height="2" style="stroke:#181818;stroke-width:0.5;" width="4" x="1340" y="612.7371"/><text fill="#000000" font-family="sans-serif" font-size="14" font-style="italic" lengthAdjust="spacing" textLength="62" x="1275" y="635.2722">&#171;Service&#187;</text></g><!--reverse link adapter.in.dto to adapter.in.mapper--><g id="link_adapter.in.dto_adapter.in.mapper"><path d="M132.7398,595.4163 C138.7498,564.3563 152.72,516.2571 188,486.9771 C194.14,481.8871 197.57,483.8771 205.5,482.9771 C219.47,481.4071 320.92,478.3271 332,486.9771 C369.26,516.0771 388.38,570.3971 396.68,601.4971 " fill="none" id="adapter.in.dto-backto-adapter.in.mapper" style="stroke:#181818;stroke-width:1.0;stroke-dasharray:7.0,7.0;"/><polygon fill="#181818" points="131.6,601.3071,137.2369,593.2309,132.5499,596.3981,129.3826,591.7111,131.6,601.3071" style="stroke:#181818;stroke-width:1.0;"/></g><!--link adapter.in.component to adapter.in.mapper--><g id="link_adapter.in.component_adapter.in.mapper"><path d="M314.91,624.9771 C326.14,624.9771 331.37,624.9771 342.59,624.9771 " fill="none" id="adapter.in.component-to-adapter.in.mapper" style="stroke:#181818;stroke-width:1.0;stroke-dasharray:7.0,7.0;"/><polygon fill="#181818" points="348.59,624.9771,339.59,620.9771,343.59,624.9771,339.59,628.9771,348.59,624.9771" style="stroke:#181818;stroke-width:1.0;"/></g><!--link adapter.in.component to adapter.in.port--><g id="link_adapter.in.component_adapter.in.port"><path d="M260,601.2571 C260,556.8871 260,479.0171 260,455.8471 " fill="none" id="adapter.in.component-to-adapter.in.port" style="stroke:#181818;stroke-width:1.0;"/><polygon fill="none" points="260,437.8471,254,455.8471,266,455.8471,260,437.8471" style="stroke:#181818;stroke-width:1.0;"/></g><!--link adapter.in.port to adapter.in.dto--><g id="link_adapter.in.port_adapter.in.dto"><path d="M253.55,436.0871 C239.78,443.5171 207.22,462.6671 188,486.9771 C159.98,522.4171 144.0182,567.2195 135.5882,595.9695 " fill="none" id="adapter.in.port-to-adapter.in.dto" style="stroke:#181818;stroke-width:1.0;"/><polygon fill="#181818" points="133.9,601.7271,140.2707,594.2162,135.3069,596.9291,132.5939,591.9652,133.9,601.7271" style="stroke:#181818;stroke-width:1.0;"/></g><!--link adapter.out.mapper to adapter.out.dto--><g id="link_adapter.out.mapper_adapter.out.dto"><path d="M622.38,408.2171 C626.12,366.9971 639.95,281.7771 691,236.4871 C696.97,231.1971 700.57,233.3871 708.5,232.4871 C732.57,229.7771 793.43,229.7771 817.5,232.4871 C825.43,233.3871 829.16,231.0571 835,236.4871 C884.23,282.2271 893.2354,361.2409 894.7054,402.3209 " fill="none" id="adapter.out.mapper-to-adapter.out.dto" style="stroke:#181818;stroke-width:1.0;"/><polygon fill="#181818" points="894.92,408.3171,898.5956,399.1798,894.7412,403.3203,890.6007,399.4659,894.92,408.3171" style="stroke:#181818;stroke-width:1.0;"/></g><!--link adapter.out.component to adapter.out.mapper--><g id="link_adapter.out.component_adapter.out.mapper"><path d="M708.22,431.7371 C696.9,431.7371 691.57,431.7371 680.25,431.7371 " fill="none" id="adapter.out.component-to-adapter.out.mapper" style="stroke:#181818;stroke-width:1.0;stroke-dasharray:7.0,7.0;"/><polygon fill="#181818" points="674.25,431.7371,683.25,435.7371,679.25,431.7371,683.25,427.7371,674.25,431.7371" style="stroke:#181818;stroke-width:1.0;"/></g><!--link domain.service to domain.model--><g id="link_domain.service_domain.model"><path d="M474.3,780.2271 C485.71,780.2271 491.13,780.2271 502.54,780.2271 " fill="none" id="domain.service-to-domain.model" style="stroke:#181818;stroke-width:1.0;stroke-dasharray:7.0,7.0;"/><polygon fill="#181818" points="508.54,780.2271,499.54,776.2271,503.54,780.2271,499.54,784.2271,508.54,780.2271" style="stroke:#181818;stroke-width:1.0;"/></g><!--link adapter.in.mapper to domain.model--><g id="link_adapter.in.mapper_domain.model"><path d="M417.59,648.4871 C430.69,666.0571 450.81,690.0771 473,705.9771 C480.45,711.3171 484.4,708.8571 492,713.9771 C509.64,725.8571 522.5175,738.5105 534.6475,752.2405 " fill="none" id="adapter.in.mapper-to-domain.model" style="stroke:#181818;stroke-width:1.0;"/><polygon fill="#181818" points="538.62,756.7371,535.6589,747.3439,535.3095,752.99,529.6635,752.6406,538.62,756.7371" style="stroke:#181818;stroke-width:1.0;"/></g><!--link adapter.in.component to usecase.in.component--><g id="link_adapter.in.component_usecase.in.component"><path d="M267.02,648.4671 C287.38,713.6571 343.9815,894.9698 356.7315,935.7998 " fill="none" id="adapter.in.component-to-usecase.in.component" style="stroke:#181818;stroke-width:1.0;stroke-dasharray:7.0,7.0;"/><polygon fill="#181818" points="358.52,941.5271,359.6555,931.7439,357.0296,936.7544,352.0192,934.1285,358.52,941.5271" style="stroke:#181818;stroke-width:1.0;"/></g><!--link domain.service to usecase.in.component--><g id="link_domain.service_usecase.in.component"><path d="M414.64,803.9171 C400.56,842.1271 379.0085,900.629 370.0685,924.869 " fill="none" id="domain.service-to-usecase.in.component" style="stroke:#181818;stroke-width:1.0;"/><polygon fill="none" points="363.84,941.7571,375.6979,926.9452,364.4392,922.7929,363.84,941.7571" style="stroke:#181818;stroke-width:1.0;"/></g><!--link domain.service to usecase.out.component--><g id="link_domain.service_usecase.out.component"><path d="M433.52,803.9171 C451.23,842.1271 483.666,912.0738 494.906,936.3138 " fill="none" id="domain.service-to-usecase.out.component" style="stroke:#181818;stroke-width:1.0;stroke-dasharray:7.0,7.0;"/><polygon fill="#181818" points="497.43,941.7571,497.2728,931.9095,495.3266,937.221,490.0151,935.2748,497.43,941.7571" style="stroke:#181818;stroke-width:1.0;"/></g><!--link adapter.out.component to usecase.out.component--><g id="link_adapter.out.component_usecase.out.component"><path d="M758.5,455.1871 C745.18,517.9171 701.82,698.9071 621,827.4671 C588.74,878.7771 545.9036,914.7429 524.0636,931.7129 " fill="none" id="adapter.out.component-to-usecase.out.component" style="stroke:#181818;stroke-width:1.0;"/><polygon fill="none" points="509.85,942.7571,527.745,936.4508,520.3822,926.975,509.85,942.7571" style="stroke:#181818;stroke-width:1.0;"/></g><!--link adapter.out.mapper to domain.model--><g id="link_adapter.out.mapper_domain.model"><path d="M616.8,455.4671 C605.18,518.3971 573.7596,688.4668 562.2196,750.9568 " fill="none" id="adapter.out.mapper-to-domain.model" style="stroke:#181818;stroke-width:1.0;stroke-dasharray:7.0,7.0;"/><polygon fill="#181818" points="561.13,756.8571,566.6979,748.7331,562.038,751.9402,558.8309,747.2803,561.13,756.8571" style="stroke:#181818;stroke-width:1.0;"/></g><!--reverse link usecase.in.secondary.component to domain.secondary.service--><g id="link_usecase.in.secondary.component_domain.secondary.service"><path d="M1161.33,624.9771 C1200.08,624.9771 1220.84,624.9771 1259.59,624.9771 " fill="none" id="usecase.in.secondary.component-backto-domain.secondary.service" style="stroke:#181818;stroke-width:1.0;"/><polygon fill="none" points="1143.33,624.9771,1161.33,630.9771,1161.33,618.9771,1143.33,624.9771" style="stroke:#181818;stroke-width:1.0;"/></g><!--link adapter.out.component to usecase.in.secondary.component--><g id="link_adapter.out.component_usecase.in.secondary.component"><path d="M796.55,455.4571 C808.5,463.2371 822.17,471.7871 835,478.9771 C946.2,541.3571 1082.738,601.7038 1119.498,617.6938 " fill="none" id="adapter.out.component-to-usecase.in.secondary.component" style="stroke:#181818;stroke-width:1.0;stroke-dasharray:7.0,7.0;"/><polygon fill="#181818" points="1125,620.0871,1118.3425,612.8291,1120.415,618.0927,1115.1515,620.1651,1125,620.0871" style="stroke:#181818;stroke-width:1.0;"/></g><!--link cloud.in.component to adapter.in.port--><g id="link_cloud.in.component_adapter.in.port"><path d="M260,204.7371 C260,259.4571 260,391.1171 260,419.5471 " fill="none" id="cloud.in.component-to-adapter.in.port" style="stroke:#181818;stroke-width:1.0;stroke-dasharray:7.0,7.0;"/><polygon fill="#181818" points="260,425.5471,264,416.5471,260,420.5471,256,416.5471,260,425.5471" style="stroke:#181818;stroke-width:1.0;"/></g><!--reverse link cloud.out.port to adapter.out.component--><g id="link_cloud.out.port_adapter.out.component"><path d="M826.08,193.2361 C818.53,221.6661 783.52,353.4871 768.98,408.2171 " fill="none" id="cloud.out.port-backto-adapter.out.component" style="stroke:#181818;stroke-width:1.0;stroke-dasharray:7.0,7.0;"/><polygon fill="#181818" points="827.62,187.4371,821.444,195.1089,826.3367,192.2696,829.176,197.1622,827.62,187.4371" style="stroke:#181818;stroke-width:1.0;"/></g><!--link cloud.out.port to adapter.out.dto--><g id="link_cloud.out.port_adapter.out.dto"><path d="M830.38,187.4371 C837.93,215.8671 872.9394,347.6882 887.4794,402.4182 " fill="none" id="cloud.out.port-to-adapter.out.dto" style="stroke:#181818;stroke-width:1.0;stroke-dasharray:7.0,7.0;"/><polygon fill="#181818" points="889.02,408.2171,890.575,398.4918,887.7362,403.3847,882.8432,400.5458,889.02,408.2171" style="stroke:#181818;stroke-width:1.0;"/></g><!--SRC=[bLPBReCm5Dnp2YjPunCWfAHP9kgYxG4iS1DKm1OshQ8sTwyD66pZHo1TXEAPzvat3vALhCtHJlqHWJBz3ovgz1iXbB6AivhMqZ_5qqcIl9I5kaZJw155sJmMQsKN30od04wyjxkGj4hJWSLP8tMC6KSVACH3v-Ka-o9NYdO7pdU6QEuTMr7KL0XqONbRKdDk8KXEkAJDT6AT5NMNTu1eQVPbSRt9QqFk5ZxGtaHn-ZlqjvLWwxYvP8frUdzTpQW8vxHHf4jtuV2qQW7A8ARvp8FXCqwzgiBugJ2NqCTvnedZltHTNLqZSGmMfLmncwMoZTEuzjNMQVfstJHEJTuuJqrP6cW0Puao90JmmLbDWImjFKr7HNDM4RqX-xDMyLYsr59nrbEFnXNBQQcxqTzMCn1UqEQxoAX-DlHN5iU3g3xi963ThQ0P4HGet5_-0Tqj_y-jaDInIb4hsJw9oZwKFS4TftpqjwtY7x15JOpEeXjo-lQ4auwYp9TThrL0HcZFbUYXbYDeIDsI1ndGLAqCJeDHj6nh9vFBNDWV77BH81VqLa69oiBgd3JtDF266Me8evOCXqV2Qi-DZDL622urL2kyfIOjlA-Zvq1EVFRC4UZ6dWVmECDFOvXVAvwNJtZ-_d5_Sw14WS9vVQGJpJoA_m40]--></g></svg>